<svg width="50" height="50" viewBox="0 0 50 50" fill="none" xmlns="http://www.w3.org/2000/svg">
<g clip-path="url(#clip0_1:224)">
<path fill-rule="evenodd" clip-rule="evenodd" d="M45.3906 16.178L43.7566 17.7431C40.2162 14.7874 35.6766 13.1343 30.9566 13.1343C27.7787 13.1343 24.6026 13.9168 21.8792 15.3074L28.7779 8.69987C29.3226 9.04712 29.9575 9.22156 30.5941 9.22156C31.5013 9.22156 32.4102 8.87431 33.1353 8.17818C34.5872 6.78754 34.5872 4.61273 33.1353 3.2221C32.4085 2.52596 31.5013 2.17871 30.5941 2.17871C29.6868 2.17871 28.7779 2.52596 28.0528 3.2221C26.8732 4.43992 26.6911 6.17781 27.5081 7.48204L18.7932 15.8291L17.1592 14.264L12.7115 18.524L14.3455 20.0891L5.44852 28.6106C4.90384 28.2633 4.26894 28.0889 3.63235 28.0889C2.72511 28.0889 1.81618 28.4362 1.09107 29.1323C-0.360842 30.5229 -0.360842 32.6977 1.09107 34.0884C1.81788 34.6965 2.72511 35.0454 3.63235 35.0454C4.53958 35.0454 5.44852 34.6981 6.17363 34.002C7.3532 32.8722 7.53533 31.1327 6.71831 29.742L13.617 23.1345C9.98639 29.8301 10.8034 38.1771 16.1583 44.0886L14.5243 45.7401L19.0638 50L23.5115 45.7401L19.0638 41.4801L17.52 42.9588C12.2553 37.0457 11.983 28.5258 16.4306 22.2655L17.1575 22.9616L21.697 18.7017L20.88 18.0056C23.7855 16.0052 27.326 14.9618 30.9566 14.9618C35.2238 14.9618 39.217 16.4405 42.4851 19.0489L40.8511 20.5276L45.3906 24.7876L49.8383 20.5276L45.3906 16.1796V16.178ZM20.9702 45.74L19.0639 47.566L17.1575 45.74L19.0639 43.9141L20.9702 45.74V45.74ZM29.3226 4.52643C29.6851 4.17918 30.1396 4.00474 30.5941 4.00474C31.0485 4.00474 31.5013 4.17918 31.8656 4.52643C32.5924 5.22257 32.5924 6.26595 31.8656 6.96046C31.503 7.30771 31.0485 7.48215 30.5941 7.48215C30.1396 7.48215 29.6868 7.30771 29.3226 6.96046C28.5958 6.35236 28.5958 5.22094 29.3226 4.52643V4.52643ZM4.90211 32.7842C4.53956 33.1315 4.08509 33.3059 3.63062 33.3059C3.17616 33.3059 2.72339 33.1315 2.35913 32.7842C1.99658 32.5234 1.81445 32.0881 1.81445 31.5664C1.81445 31.1311 1.99658 30.6974 2.35913 30.3486C2.72169 29.9997 3.17616 29.8269 3.63062 29.8269C4.08509 29.8269 4.53786 30.0013 4.90211 30.3486C5.62892 31.0447 5.62892 32.1745 4.90211 32.7826V32.7842ZM17.0673 20.5244L15.1609 18.6985L17.0673 16.8725L18.9737 18.6985L17.0673 20.5244V20.5244ZM45.3906 22.3502L43.4843 20.5243L45.3906 18.6983L47.297 20.5243L45.3906 22.3502V22.3502Z" fill="#333333"/>
</g>
<defs>
<clipPath id="clip0_1:224">
<rect width="50" height="50" fill="white"/>
</clipPath>
</defs>
</svg>
